<svg width="44" height="45" viewBox="0 0 44 45" fill="none" xmlns="http://www.w3.org/2000/svg">
<g clip-path="url(#clip0_2101_860)">
<path d="M29.5625 3.94556L9.58893 14.1601L1.65002 10.262L21.2627 0.581962C21.4845 0.473418 21.7282 0.416992 21.9751 0.416992C22.222 0.416992 22.4657 0.473418 22.6875 0.581962L29.5625 3.94556ZM42.3277 10.262L22.0103 20.327L14.4014 16.5801L13.3049 16.0215L33.2922 5.80009L34.3922 6.35696L42.3277 10.262Z" fill="#FDB9D3"/>
<path d="M20.3827 23.2281L20.3603 44.41L0.898906 34.2539C0.628191 34.1093 0.40168 33.894 0.243414 33.6311C0.0851493 33.3681 0.0010353 33.0672 0 32.7603L0 13.1631L8.25 17.2262V24.3676C8.25 24.8052 8.42384 25.2249 8.73327 25.5343C9.04271 25.8438 9.46239 26.0176 9.9 26.0176C10.3376 26.0176 10.7573 25.8438 11.0667 25.5343C11.3762 25.2249 11.55 24.8052 11.55 24.3676V18.8779L12.65 19.4142L20.3827 23.2281ZM43.9777 13.1854L23.6827 23.2075L23.6603 44.3876L44 33.7675L43.9777 13.1854Z" fill="#747ED1"/>
</g>
<defs>
<clipPath id="clip0_2101_860">
<rect width="44" height="44" fill="white" transform="translate(0 0.410156)"/>
</clipPath>
</defs>
</svg>
